<svg width="278" height="207" viewBox="0 0 278 207" fill="none" xmlns="http://www.w3.org/2000/svg">
<path d="M141.763 4.54637L66.7983 45.1516C68.0801 47.3584 68.906 49.8002 69.2269 52.3321C69.5478 54.864 69.3572 57.4346 68.6664 59.8915C67.9757 62.3484 66.7987 64.6416 65.2054 66.6354C63.6121 68.6291 61.6348 70.2827 59.3907 71.4982C57.1466 72.7138 54.6814 73.4665 52.141 73.7118C49.6007 73.9571 47.0369 73.69 44.6017 72.9263C42.1665 72.1626 39.9093 70.9179 37.964 69.2659C36.0186 67.6139 34.4247 65.5882 33.2765 63.3088L7.71567 77.1541L73.9262 199.391L207.974 126.783L141.763 4.54637Z" fill="#F2F2F2"/>
<path opacity="0.2" d="M65.7055 111.616L51.9418 107.939L48.265 121.703L62.0287 125.38L65.7055 111.616Z" fill="#6C63FF"/>
<path d="M84.8934 167.003C73.8914 183.875 76.906 205.334 76.906 205.334C76.906 205.334 97.7582 199.438 108.76 182.566C119.762 165.694 116.748 144.235 116.748 144.235C116.748 144.235 95.8953 150.131 84.8934 167.003Z" fill="#3F3D56"/>
<path d="M76.8475 205.137C76.8475 205.137 76.5797 205.095 76.0867 204.995C75.6935 204.915 75.1522 204.801 74.4912 204.645C68.5818 203.251 52.8709 198.541 42.5993 186.159C29.7435 170.653 30.2848 148.99 30.2848 148.99C30.2848 148.99 49.9419 152.184 62.8947 166.108C63.456 166.707 64.0021 167.327 64.533 167.969C75.7192 181.46 76.762 199.613 76.8446 204.1C76.856 204.773 76.8475 205.137 76.8475 205.137Z" fill="#6C63FF"/>
<path d="M68.9187 167.003C79.9206 183.875 76.9061 205.334 76.9061 205.334C76.9061 205.334 56.0539 199.438 45.0519 182.566C34.05 165.694 37.0646 144.235 37.0646 144.235C37.0646 144.235 57.9167 150.131 68.9187 167.003Z" stroke="#3F3D56" stroke-width="2" stroke-miterlimit="10"/>
<path opacity="0.1" d="M76.8448 204.1C76.5541 204.451 76.2977 204.75 76.0869 204.995C75.6196 205.528 75.3546 205.807 75.3546 205.807C75.3546 205.807 75.0326 205.402 74.4913 204.645C71.5195 200.502 61.9602 185.771 62.6982 168.755C62.7381 167.863 62.8036 166.981 62.8948 166.108C63.4561 166.707 64.0022 167.327 64.5331 167.969C75.7193 181.46 76.7621 199.613 76.8448 204.1Z" fill="black"/>
<path d="M93.1576 169.986C92.288 190.109 77.35 205.807 77.35 205.807C77.35 205.807 63.8219 188.879 64.6915 168.755C65.5611 148.632 80.4991 132.934 80.4991 132.934C80.4991 132.934 94.0272 149.862 93.1576 169.986Z" fill="#6C63FF"/>
<path d="M9.53327 176.569C10.5617 176.569 11.3954 175.735 11.3954 174.707C11.3954 173.679 10.5617 172.845 9.53327 172.845C8.50486 172.845 7.67117 173.679 7.67117 174.707C7.67117 175.735 8.50486 176.569 9.53327 176.569Z" fill="#FF6584"/>
<path d="M46.4431 205.271H124.228" stroke="#3F3D56" stroke-width="2" stroke-miterlimit="10"/>
<path d="M0 205.271H36.7555" stroke="#3F3D56" stroke-width="2" stroke-miterlimit="10"/>
<path d="M18.6562 205.614V184.412" stroke="#3F3D56" stroke-width="2" stroke-miterlimit="10"/>
<path d="M18.6562 187.41C20.3121 187.41 21.6544 186.068 21.6544 184.412C21.6544 182.756 20.3121 181.414 18.6562 181.414C17.0003 181.414 15.658 182.756 15.658 184.412C15.658 186.068 17.0003 187.41 18.6562 187.41Z" fill="#3F3D56"/>
<path d="M18.6562 197.479C18.6562 197.479 18.2279 188.267 9.44739 189.338L18.6562 197.479Z" fill="#3F3D56"/>
<path d="M78.8535 128.249C82.0462 128.249 84.6343 125.661 84.6343 122.468C84.6343 119.275 82.0462 116.687 78.8535 116.687C75.6608 116.687 73.0727 119.275 73.0727 122.468C73.0727 125.661 75.6608 128.249 78.8535 128.249Z" fill="#3F3D56"/>
<path d="M60.7225 126.672C63.0444 126.672 64.9267 124.79 64.9267 122.468C64.9267 120.146 63.0444 118.264 60.7225 118.264C58.4006 118.264 56.5182 120.146 56.5182 122.468C56.5182 124.79 58.4006 126.672 60.7225 126.672Z" stroke="#3F3D56" stroke-width="2" stroke-miterlimit="10"/>
<path d="M96.9842 126.672C99.3061 126.672 101.188 124.79 101.188 122.468C101.188 120.146 99.3061 118.264 96.9842 118.264C94.6622 118.264 92.7799 120.146 92.7799 122.468C92.7799 124.79 94.6622 126.672 96.9842 126.672Z" stroke="#3F3D56" stroke-width="2" stroke-miterlimit="10"/>
<path d="M77.3501 205.237L80.6342 133.755" stroke="#3F3D56" stroke-width="2" stroke-miterlimit="10"/>
<path d="M260.494 83.9263C263.687 83.9263 266.275 81.3381 266.275 78.1455C266.275 74.9528 263.687 72.3646 260.494 72.3646C257.301 72.3646 254.713 74.9528 254.713 78.1455C254.713 81.3381 257.301 83.9263 260.494 83.9263Z" fill="#3F3D56"/>
<path d="M140.929 9.4085C143.251 9.4085 145.134 7.52619 145.134 5.20425C145.134 2.88231 143.251 1 140.929 1C138.607 1 136.725 2.88231 136.725 5.20425C136.725 7.52619 138.607 9.4085 140.929 9.4085Z" stroke="#3F3D56" stroke-width="2" stroke-miterlimit="10"/>
<path d="M93.1377 35.6217C95.4597 35.6217 97.342 33.7394 97.342 31.4174C97.342 29.0955 95.4597 27.2132 93.1377 27.2132C90.8158 27.2132 88.9335 29.0955 88.9335 31.4174C88.9335 33.7394 90.8158 35.6217 93.1377 35.6217Z" stroke="#3F3D56" stroke-width="2" stroke-miterlimit="10"/>
<path d="M186.623 51.1171C194.139 51.1171 200.232 45.0242 200.232 37.5082C200.232 29.9922 194.139 23.8993 186.623 23.8993C179.107 23.8993 173.014 29.9922 173.014 37.5082C173.014 45.0242 179.107 51.1171 186.623 51.1171Z" fill="#FF6584"/>
<path d="M217.947 157.759L225.221 187.089L232.495 185.916L225.221 152.363L217.947 157.759Z" fill="#FBBEBE"/>
<path d="M227.802 185.212C227.802 185.212 223.659 186.612 224.206 187.554C224.752 188.497 224.752 194.363 222.874 196.474C220.997 198.586 216.305 205.156 221.701 205.39C227.098 205.625 232.495 202.106 232.495 202.106V196.005L233.433 201.636H234.372V195.301C234.372 195.301 236.718 191.312 235.31 188.966C233.902 186.62 232.985 184.575 231.215 184.776C229.444 184.977 227.802 185.212 227.802 185.212Z" fill="#2F2E41"/>
<path d="M189.322 182.631L188.148 188.966H196.361V182.631H189.322Z" fill="#FBBEBE"/>
<path d="M190.026 187.558C190.026 187.558 187.679 187.323 186.975 190.608C186.271 193.893 179.936 200.865 177.59 201.569C175.243 202.273 175.243 204.62 178.294 205.089C181.344 205.558 189.087 205.793 190.964 203.212C192.841 200.631 195.422 196.474 195.422 196.474L194.249 205.323H196.361C196.361 205.323 198.238 196.709 200.115 194.597C201.992 192.485 196.361 187.558 195.422 187.558H190.026Z" fill="#2F2E41"/>
<path d="M178.528 86.6645C178.528 86.6645 176.886 91.1226 174.07 91.8265C171.255 92.5304 150.372 97.4577 150.372 97.4577C150.372 97.4577 132.07 97.927 137.702 101.916C143.333 105.905 152.484 101.916 152.484 101.916C152.484 101.916 179.232 98.6309 181.344 95.1114C182.734 92.7161 183.912 90.2037 184.863 87.603L178.528 86.6645Z" fill="#FBBEBE"/>
<path d="M187.445 66.955C187.445 66.955 174.07 88.7762 175.713 89.2455C177.355 89.7148 192.607 94.6421 193.31 92.765C194.014 90.8879 194.014 82.2064 194.014 82.2064L187.445 66.955Z" fill="#2F2E41"/>
<path opacity="0.1" d="M187.445 66.955C187.445 66.955 174.07 88.7762 175.713 89.2455C177.355 89.7148 192.607 94.6421 193.31 92.765C194.014 90.8879 194.014 82.2064 194.014 82.2064L187.445 66.955Z" fill="black"/>
<path d="M222.171 61.793L252.439 77.2789C252.439 77.2789 269.567 81.737 265.813 85.2566C262.059 88.7761 249.858 82.2063 249.858 82.2063L216.305 66.955L222.171 61.793Z" fill="#FBBEBE"/>
<path d="M183.456 49.592C183.456 49.592 189.322 58.5082 188.852 60.6199C188.852 60.6199 189.322 62.0277 188.618 62.9663C187.914 63.9048 188.148 69.5361 188.148 69.5361L190.495 72.821L193.545 62.7317L194.953 51.9384C194.953 51.9384 191.785 47.5976 192.255 45.4859C192.724 43.3742 183.456 49.592 183.456 49.592Z" fill="#FBBEBE"/>
<path d="M201.992 100.273C201.992 100.273 188.852 135.469 188.852 150.955C188.852 166.441 183.925 184.039 187.679 185.681C191.433 187.323 210.439 187.558 210.908 185.681C211.377 183.804 208.562 107.547 207.154 104.497C205.746 101.447 201.992 100.273 201.992 100.273Z" fill="#2F2E41"/>
<path opacity="0.1" d="M201.992 100.273C201.992 100.273 188.852 135.469 188.852 150.955C188.852 166.441 183.925 184.039 187.679 185.681C191.433 187.323 210.439 187.558 210.908 185.681C211.377 183.804 208.562 107.547 207.154 104.497C205.746 101.447 201.992 100.273 201.992 100.273Z" fill="black"/>
<path d="M186.506 50.9998C191.301 50.9998 195.188 47.1129 195.188 42.3182C195.188 37.5235 191.301 33.6367 186.506 33.6367C181.711 33.6367 177.824 37.5235 177.824 42.3182C177.824 47.1129 181.711 50.9998 186.506 50.9998Z" fill="#FBBEBE"/>
<path d="M189.087 68.5974L188.459 63.3022C188.459 63.3022 186.506 66.0164 186.506 68.1281C186.506 70.2398 185.333 77.7482 190.26 82.4409C195.187 87.1336 196.126 88.0722 196.361 89.0107C196.595 89.9493 197.768 89.9493 197.768 89.9493L204.573 117.402C204.573 117.402 206.685 190.374 209.97 191.312C213.254 192.251 223.344 191.312 224.048 190.139C224.752 188.966 222.875 157.759 222.875 157.759C222.875 157.759 228.037 185.446 229.914 185.446C231.791 185.446 232.964 181.457 232.495 181.223C232.025 180.988 229.21 162.921 228.037 157.29C226.863 151.659 227.333 104.027 227.333 104.027C227.333 104.027 231.087 97.9269 218.182 85.9605C218.182 85.9605 209.97 62.0276 209.5 62.0276C209.031 62.0276 199.88 49.1226 199.88 49.1226C199.88 49.1226 194.718 49.1226 193.78 52.1729C192.841 55.2231 189.087 68.5974 189.087 68.5974Z" fill="#2F2E41"/>
<path d="M197.065 50.9997L199.88 49.1226C199.88 49.1226 211.612 56.1617 219.824 56.6309C228.037 57.1002 227.802 61.7929 224.517 65.0778C221.232 68.3628 208.327 79.6253 207.858 76.8097C207.389 73.994 197.065 50.9997 197.065 50.9997Z" fill="#2F2E41"/>
<path d="M186.623 39.3852C191.807 39.3852 196.009 36.864 196.009 33.754C196.009 30.6439 191.807 28.1227 186.623 28.1227C181.44 28.1227 177.238 30.6439 177.238 33.754C177.238 36.864 181.44 39.3852 186.623 39.3852Z" fill="#FF6584"/>
<path d="M187.562 29.5305C190.672 29.5305 193.193 27.0093 193.193 23.8993C193.193 20.7892 190.672 18.268 187.562 18.268C184.452 18.268 181.93 20.7892 181.93 23.8993C181.93 27.0093 184.452 29.5305 187.562 29.5305Z" fill="#FF6584"/>
<path d="M180.053 20.849C180.054 19.4571 180.569 18.1145 181.501 17.0802C182.432 16.046 183.714 15.3933 185.098 15.2482C184.903 15.228 184.707 15.2178 184.512 15.2178C183.018 15.2178 181.586 15.811 180.53 16.8671C179.474 17.9232 178.88 19.3555 178.88 20.849C178.88 22.3425 179.474 23.7749 180.53 24.8309C181.586 25.887 183.018 26.4803 184.512 26.4803C184.707 26.4802 184.903 26.4701 185.098 26.4498C183.714 26.3047 182.432 25.6521 181.501 24.6178C180.569 23.5836 180.054 22.241 180.053 20.849Z" fill="#FF6584"/>
<path d="M49.1681 70.2041C57.7151 70.2041 64.6439 63.2753 64.6439 54.7283C64.6439 46.1812 57.7151 39.2524 49.1681 39.2524C40.621 39.2524 33.6923 46.1812 33.6923 54.7283C33.6923 63.2753 40.621 70.2041 49.1681 70.2041Z" fill="#6C63FF"/>
<path d="M141.181 205.397H252.872" stroke="#3F3D56" stroke-width="2" stroke-miterlimit="10"/>
<path d="M274.24 50.2777L260.712 63.8056L255.026 58.1197C254.846 57.9392 254.631 57.7961 254.396 57.6984C254.16 57.6007 253.907 57.5504 253.652 57.5504C253.396 57.5504 253.144 57.6007 252.908 57.6984C252.672 57.7961 252.458 57.9392 252.277 58.1197L252.073 57.8142C251.314 58.5732 251.518 60.1094 252.277 60.8684L259.655 68.2457C259.933 68.5237 260.31 68.6799 260.703 68.68C261.096 68.6801 261.473 68.5241 261.751 68.2462L276.987 53.0265C277.747 52.2677 278.022 50.8764 277.263 50.1173C276.504 49.3585 274.999 49.5189 274.24 50.2777Z" fill="#6C63FF"/>
<path opacity="0.1" d="M274.24 50.2777L260.712 63.8056L255.026 58.1197C254.846 57.9392 254.631 57.7961 254.396 57.6984C254.16 57.6007 253.907 57.5504 253.652 57.5504C253.396 57.5504 253.144 57.6007 252.908 57.6984C252.672 57.7961 252.458 57.9392 252.277 58.1197L252.073 57.8142C251.314 58.5732 251.518 60.1094 252.277 60.8684L259.655 68.2457C259.933 68.5237 260.31 68.6799 260.703 68.68C261.096 68.6801 261.473 68.5241 261.751 68.2462L276.987 53.0265C277.747 52.2677 278.022 50.8764 277.263 50.1173C276.504 49.3585 274.999 49.5189 274.24 50.2777Z" fill="black"/>
<path d="M274.24 49.678L260.712 63.2058L255.026 57.5199C254.846 57.3394 254.631 57.1963 254.396 57.0986C254.16 57.0009 253.907 56.9507 253.652 56.9507C253.397 56.9507 253.144 57.0009 252.908 57.0986C252.672 57.1963 252.458 57.3394 252.277 57.5199C252.097 57.7004 251.954 57.9147 251.856 58.1505C251.758 58.3863 251.708 58.639 251.708 58.8943C251.708 59.1495 251.758 59.4023 251.856 59.6381C251.954 59.8739 252.097 60.0882 252.277 60.2686L259.655 67.6459C259.933 67.9239 260.31 68.0802 260.703 68.0803C261.096 68.0804 261.473 67.9243 261.751 67.6464L276.987 52.4267C277.168 52.2463 277.311 52.0321 277.409 51.7963C277.506 51.5605 277.557 51.3077 277.557 51.0525C277.557 50.7972 277.507 50.5444 277.409 50.3086C277.311 50.0727 277.168 49.8585 276.988 49.678C276.623 49.3135 276.129 49.1088 275.614 49.1088C275.098 49.1088 274.604 49.3135 274.24 49.678Z" fill="#6C63FF"/>
</svg>
